<svg width="24" height="24" viewBox="0 0 24 24" fill="none" xmlns="http://www.w3.org/2000/svg">
<g clip-path="url(#clip0_163_6)">
<path d="M12 0C5.3725 0 0 5.3725 0 12C0 18.6275 5.3725 24 12 24C18.6275 24 24 18.6275 24 12C23.9927 5.37561 18.6244 0.00732422 12 0ZM12 22.8001C6.03534 22.8001 1.20007 17.9647 1.20007 12C1.20007 6.03534 6.03534 1.20007 12 1.20007C17.9647 1.20007 22.7999 6.03534 22.7999 12C22.7932 17.9619 17.9619 22.7932 12 22.8001Z" fill="white"/>
<path d="M12 7.20014C13.4016 7.2071 14.7297 7.82856 15.6333 8.89991C15.8487 9.15186 16.2273 9.18189 16.4795 8.96674C16.7314 8.7516 16.7614 8.37275 16.5463 8.12061C14.4036 5.59284 10.6175 5.28046 8.08974 7.42298C5.56179 9.5655 5.24941 13.3518 7.39211 15.8795C9.53463 18.4073 13.3207 18.7197 15.8487 16.5772C16.0999 16.3642 16.3332 16.1309 16.5463 15.8795C16.7614 15.6274 16.7314 15.2487 16.4795 15.0334C16.2273 14.8182 15.8487 14.8483 15.6333 15.1002C13.9158 17.1124 10.8922 17.3511 8.88003 15.6334C6.86806 13.9159 6.62929 10.8923 8.34682 8.88014C9.25924 7.81153 10.5948 7.19721 12 7.20014Z" fill="white"/>
</g>
<defs>
<clipPath id="clip0_163_6">
<rect width="24" height="24" fill="white"/>
</clipPath>
</defs>
</svg>
